<svg id="Layer_3" enable-background="new 0 0 64 64" height="512" viewBox="0 0 64 64" width="512" xmlns="http://www.w3.org/2000/svg"><g><path d="m62 1h-60c-.553 0-1 .448-1 1v4c0 .552.447 1 1 1h13.586l5.707 5.707c.187.188.441.293.707.293h2v3 19c0 .206.077.386.183.545l-.015.01 3.904 5.857.958 3.831c.112.445.511.757.97.757h1v9h2v-9h1c.459 0 .858-.312.97-.757l.958-3.831 3.904-5.857-.015-.01c.106-.159.183-.339.183-.545v-19-3h2c.266 0 .52-.105.707-.293l5.707-5.707h13.586c.553 0 1-.448 1-1v-4c0-.552-.447-1-1-1zm-45.586 4-2-2h3.172l2 2zm-2.828 0h-3.172l-2-2h3.172zm8.828 0-2-2h3.172l2 2zm6 0-2-2h3.172l2 2zm6 0-2-2h3.172l2 2zm6 0-2-2h3.172l2 2zm6 0-2-2h3.172l2 2zm4-2h3.172l2 2h-3.172zm-47.414 0h2.586l2 2h-4.586zm28 22h2v3c0 .551-.448 1-1 1s-1-.449-1-1zm2-2h-2v-6h2zm-1 8c1.654 0 3-1.346 3-3v-11h3v17h-12v-17h3v11c0 1.654 1.346 3 3 3zm-2.465 9-2.667-4h4.132v2h2v-2h4.132l-2.667 4zm1.246 4-.501-2h3.439l-.501 2zm7.219-29h-12v-2h12zm3.586-4h-19.172l-4-4h27.172zm19.414-6h-2.586l-2-2h4.586z"/><path d="m30 57h-26c-1.654 0-3 1.346-3 3s1.346 3 3 3h26c.553 0 1-.448 1-1v-4c0-.552-.447-1-1-1zm-1 4h-25c-.552 0-1-.449-1-1s.448-1 1-1h25z"/><path d="m60 57h-26c-.553 0-1 .448-1 1v4c0 .552.447 1 1 1h26c1.654 0 3-1.346 3-3s-1.346-3-3-3zm0 4h-25v-2h25c.552 0 1 .449 1 1s-.448 1-1 1z"/><path d="m34.172 52h5.657v2h-5.657z" transform="matrix(.707 -.707 .707 .707 -26.64 41.686)"/><path d="m26 50.172h2v5.657h-2z" transform="matrix(.707 -.707 .707 .707 -29.569 34.615)"/><path d="m19 53h4v2h-4z"/><path d="m41 53h4v2h-4z"/></g></svg>